<svg xmlns="http://www.w3.org/2000/svg" viewBox="0 0 1200 600" fill="currentColor">
  <!-- North America -->
  <path d="M150,120 L180,95 L210,85 L240,80 L270,78 L295,85 L310,100 L320,90 L340,88 L355,95 L350,110 L340,125 L330,135 L310,140 L295,155 L280,170 L265,185 L255,200 L248,215 L240,230 L230,245 L218,255 L205,260 L195,270 L188,285 L180,290 L170,280 L160,270 L152,255 L148,240 L140,230 L130,220 L118,215 L108,205 L100,195 L95,180 L92,165 L95,150 L100,140 L110,130 L125,125 Z"/>
  <!-- Greenland -->
  <path d="M330,55 L355,48 L380,50 L395,58 L400,70 L395,82 L385,90 L370,92 L355,88 L340,80 L332,68 Z"/>
  <!-- South America -->
  <path d="M220,295 L235,290 L250,288 L265,292 L278,300 L288,315 L295,335 L298,355 L296,375 L290,395 L282,415 L272,432 L260,445 L250,458 L242,472 L238,485 L240,498 L235,510 L225,515 L218,505 L215,490 L218,475 L222,460 L225,445 L222,430 L215,415 L208,400 L202,385 L198,370 L196,355 L198,340 L202,325 L208,310 L215,300 Z"/>
  <!-- Europe -->
  <path d="M480,90 L500,85 L520,88 L540,92 L555,98 L565,108 L570,120 L568,132 L560,140 L548,148 L535,152 L522,155 L510,158 L498,155 L488,148 L480,140 L475,128 L472,115 L475,102 Z"/>
  <!-- UK/Ireland -->
  <path d="M455,98 L462,92 L470,95 L472,105 L468,112 L460,115 L455,108 Z"/>
  <!-- Scandinavia -->
  <path d="M510,55 L518,48 L528,50 L535,58 L538,70 L535,82 L528,88 L518,85 L512,75 L510,65 Z"/>
  <!-- Africa -->
  <path d="M488,175 L510,168 L530,170 L548,175 L565,185 L578,198 L585,215 L590,235 L592,255 L590,278 L585,298 L578,318 L568,335 L555,348 L540,358 L525,365 L510,368 L495,365 L482,358 L472,348 L465,335 L460,318 L458,298 L460,278 L462,255 L465,235 L470,218 L478,200 L485,185 Z"/>
  <!-- Madagascar -->
  <path d="M600,330 L608,325 L612,335 L610,348 L605,358 L598,355 L596,342 Z"/>
  <!-- Asia (main mass) -->
  <path d="M580,60 L620,55 L660,52 L700,50 L740,52 L780,55 L820,60 L855,68 L885,78 L910,90 L930,105 L940,120 L945,138 L940,155 L930,170 L915,182 L898,190 L880,195 L860,198 L840,195 L820,190 L800,185 L780,182 L760,180 L740,178 L720,175 L700,170 L680,165 L660,160 L640,155 L620,150 L600,148 L585,145 L575,138 L572,128 L575,115 L580,100 L582,80 Z"/>
  <!-- India -->
  <path d="M700,178 L720,185 L735,198 L742,215 L745,235 L740,255 L732,270 L720,280 L708,275 L698,265 L692,250 L688,235 L685,218 L688,200 L695,188 Z"/>
  <!-- Southeast Asia -->
  <path d="M790,195 L810,200 L825,210 L835,225 L838,240 L832,252 L820,258 L808,255 L798,245 L792,232 L788,218 L788,205 Z"/>
  <!-- Japan -->
  <path d="M920,110 L928,105 L935,110 L938,120 L935,132 L928,138 L920,135 L918,125 Z"/>
  <!-- Indonesia/Philippines -->
  <path d="M810,270 L825,268 L838,272 L848,280 L855,290 L850,298 L840,302 L828,300 L818,295 L812,285 L810,278 Z"/>
  <path d="M862,275 L875,272 L885,278 L888,288 L882,295 L872,298 L865,292 L862,282 Z"/>
  <!-- Australia -->
  <path d="M830,350 L860,340 L892,338 L920,342 L945,350 L962,365 L970,382 L972,400 L968,418 L958,432 L942,442 L922,448 L900,450 L878,448 L858,442 L842,432 L830,418 L822,400 L820,382 L822,365 Z"/>
  <!-- New Zealand -->
  <path d="M988,420 L995,415 L1000,422 L998,435 L992,445 L985,442 L982,432 Z"/>
  <!-- Middle East -->
  <path d="M580,160 L598,158 L615,162 L628,170 L635,182 L632,195 L622,205 L608,208 L595,205 L585,198 L578,188 L575,175 Z"/>
  <!-- Central Asia -->
  <path d="M640,95 L665,90 L690,88 L710,92 L725,100 L730,112 L725,125 L712,132 L695,135 L678,132 L662,128 L650,120 L642,108 Z"/>
  <!-- Iceland -->
  <path d="M415,62 L425,58 L435,60 L438,68 L432,74 L422,72 L415,68 Z"/>
</svg>
